<svg width="42" height="35" viewBox="0 0 42 35" fill="none" xmlns="http://www.w3.org/2000/svg">
<path d="M33.9581 8.42588C35.1083 9.89718 35.1083 11.9454 35.1083 16.0417C35.1083 20.138 35.1083 22.1862 33.9581 23.6576C33.4601 24.2944 32.8202 24.8413 32.0751 25.267C30.5712 26.1258 28.5524 26.2343 24.8708 26.248V26.25L22.9843 29.4746C22.3556 30.5495 20.5609 30.5495 19.9322 29.4746L18.0457 26.25V26.248C14.3641 26.2343 12.3452 26.1258 10.8414 25.267C10.0962 24.8413 9.45635 24.2944 8.95839 23.6576C7.80817 22.1862 7.80817 20.138 7.80817 16.0417C7.80817 11.9454 7.80817 9.89718 8.95839 8.42588C9.45635 7.78894 10.0962 7.24207 10.8414 6.81647C12.5628 5.83337 14.9592 5.83337 19.752 5.83337H23.1645C27.9572 5.83337 30.3537 5.83337 32.0751 6.81647C32.8202 7.24207 33.4601 7.78894 33.9581 8.42588Z" stroke="white" stroke-width="4" stroke-linecap="round" stroke-linejoin="round"/>
<path d="M16.3395 13.125H26.577" stroke="white" stroke-width="2" stroke-linecap="round" stroke-linejoin="round"/>
<path d="M16.3395 18.9584H21.4583" stroke="white" stroke-width="2" stroke-linecap="round" stroke-linejoin="round"/>
</svg>
