<svg width="32" height="29" viewBox="0 0 32 29" fill="none" xmlns="http://www.w3.org/2000/svg">
<path d="M28.6958 5.37844C29.8333 6.82281 29.8333 8.83352 29.8333 12.8549C29.8333 16.8762 29.8333 18.887 28.6958 20.3314C28.2032 20.9566 27.5704 21.4934 26.8334 21.9113C25.3461 22.7544 23.3494 22.861 19.7083 22.8744V22.8764L17.8426 26.0419C17.2208 27.0972 15.4459 27.0972 14.824 26.0419L12.9583 22.8764V22.8744C9.31719 22.861 7.32049 22.7544 5.83322 21.9113C5.09618 21.4934 4.46337 20.9566 3.97089 20.3314C2.83331 18.887 2.83331 16.8762 2.83331 12.8549C2.83331 8.83352 2.83331 6.82281 3.97089 5.37844C4.46337 4.75315 5.09618 4.21629 5.83322 3.79847C7.53572 2.83337 9.90576 2.83337 14.6458 2.83337H18.0208C22.7608 2.83337 25.1309 2.83337 26.8334 3.79847C27.5704 4.21629 28.2032 4.75315 28.6958 5.37844Z" stroke="#00BF63" stroke-width="4" stroke-linecap="round" stroke-linejoin="round"/>
<path d="M11.2708 9.99158H21.3958" stroke="#00BF63" stroke-width="2" stroke-linecap="round" stroke-linejoin="round"/>
<path d="M11.2708 15.7181H16.3333" stroke="#00BF63" stroke-width="2" stroke-linecap="round" stroke-linejoin="round"/>
</svg>
